<mxfile host="app.diagrams.net" modified="2023-06-19T03:33:28.748Z" agent="Mozilla/5.0 (Windows NT 10.0; Win64; x64) AppleWebKit/537.36 (KHTML, like Gecko) Chrome/114.0.0.0 Safari/537.36" etag="uuOuJNP6XSkRbCiS0J5H" version="21.3.8" type="github">
  <diagram name="Page-1" id="Hd1NlsPU-bSHgdVdSUGW">
    <mxGraphModel dx="868" dy="513" grid="1" gridSize="10" guides="1" tooltips="1" connect="1" arrows="1" fold="1" page="1" pageScale="1" pageWidth="827" pageHeight="1169" math="0" shadow="0">
      <root>
        <mxCell id="0" />
        <mxCell id="1" parent="0" />
        <mxCell id="zletJsl4VbaATAOqVHQm-18" value="D2A_LIN_TX" style="edgeStyle=orthogonalEdgeStyle;rounded=0;orthogonalLoop=1;jettySize=auto;html=1;entryX=0;entryY=0.5;entryDx=0;entryDy=0;verticalAlign=bottom;" edge="1" parent="1" target="zletJsl4VbaATAOqVHQm-16">
          <mxGeometry relative="1" as="geometry">
            <mxPoint x="170" y="485" as="sourcePoint" />
          </mxGeometry>
        </mxCell>
        <mxCell id="zletJsl4VbaATAOqVHQm-16" value="LIN TRX" style="rounded=0;whiteSpace=wrap;html=1;" vertex="1" parent="1">
          <mxGeometry x="360" y="420" width="170" height="130" as="geometry" />
        </mxCell>
        <mxCell id="zletJsl4VbaATAOqVHQm-26" value="D2A_LIN_NORMAL_MODE" style="edgeStyle=orthogonalEdgeStyle;rounded=0;orthogonalLoop=1;jettySize=auto;html=1;entryX=0;entryY=0.25;entryDx=0;entryDy=0;verticalAlign=bottom;" edge="1" parent="1" target="zletJsl4VbaATAOqVHQm-16">
          <mxGeometry relative="1" as="geometry">
            <mxPoint x="348" y="449" as="targetPoint" />
            <mxPoint x="170" y="453" as="sourcePoint" />
            <Array as="points">
              <mxPoint x="281" y="453" />
            </Array>
          </mxGeometry>
        </mxCell>
        <mxCell id="zletJsl4VbaATAOqVHQm-27" value="D2A_LIN_RX" style="edgeStyle=orthogonalEdgeStyle;rounded=0;orthogonalLoop=1;jettySize=auto;html=1;entryX=0;entryY=0.75;entryDx=0;entryDy=0;verticalAlign=bottom;" edge="1" parent="1" target="zletJsl4VbaATAOqVHQm-16">
          <mxGeometry relative="1" as="geometry">
            <mxPoint x="342" y="508" as="targetPoint" />
            <mxPoint x="170" y="518" as="sourcePoint" />
            <Array as="points">
              <mxPoint x="170" y="518" />
              <mxPoint x="266" y="518" />
            </Array>
          </mxGeometry>
        </mxCell>
        <mxCell id="zletJsl4VbaATAOqVHQm-28" value="LIN_M" style="edgeStyle=orthogonalEdgeStyle;rounded=0;orthogonalLoop=1;jettySize=auto;html=1;verticalAlign=bottom;exitX=1;exitY=0.5;exitDx=0;exitDy=0;startArrow=classic;startFill=1;" edge="1" parent="1" source="zletJsl4VbaATAOqVHQm-16">
          <mxGeometry relative="1" as="geometry">
            <mxPoint x="710" y="485" as="targetPoint" />
            <mxPoint x="547" y="515" as="sourcePoint" />
          </mxGeometry>
        </mxCell>
      </root>
    </mxGraphModel>
  </diagram>
</mxfile>
